<svg width="38" height="43" viewBox="0 0 38 43" fill="none" xmlns="http://www.w3.org/2000/svg">
<path d="M19 43C20.4397 43 21.8205 42.4337 22.8386 41.4258C23.8566 40.4178 24.4286 39.0508 24.4286 37.6253H13.5714C13.5714 39.0508 14.1434 40.4178 15.1614 41.4258C16.1795 42.4337 17.5603 43 19 43ZM19 5.15669L16.8367 5.58936C14.3829 6.08437 12.1772 7.4036 10.5929 9.32376C9.00864 11.2439 8.14313 13.6471 8.14286 16.1265C8.14286 17.8141 7.77914 22.0306 6.897 26.1825C6.46271 28.2437 5.87643 30.3909 5.09743 32.2506H32.9026C32.1236 30.3909 31.54 28.2464 31.103 26.1825C30.2209 22.0306 29.8571 17.8141 29.8571 16.1265C29.8562 13.6475 28.9904 11.245 27.4062 9.32541C25.822 7.4058 23.6167 6.08696 21.1633 5.59205L19 5.15401V5.15669ZM35.8829 32.2506C36.4881 33.4518 37.1884 34.4032 38 34.9379H0C0.811571 34.4032 1.51186 33.4518 2.11714 32.2506C4.56 27.4133 5.42857 18.4913 5.42857 16.1265C5.42857 9.62307 10.0971 4.19462 16.2993 2.95575C16.2614 2.58209 16.303 2.20471 16.4215 1.84795C16.54 1.4912 16.7327 1.16299 16.9871 0.884497C17.2416 0.606002 17.5522 0.383403 17.8989 0.231057C18.2456 0.0787112 18.6207 0 19 0C19.3793 0 19.7544 0.0787112 20.1011 0.231057C20.4478 0.383403 20.7584 0.606002 21.0129 0.884497C21.2673 1.16299 21.46 1.4912 21.5785 1.84795C21.697 2.20471 21.7386 2.58209 21.7007 2.95575C24.7686 3.57358 27.5266 5.22216 29.5076 7.62234C31.4887 10.0225 32.571 13.0268 32.5714 16.1265C32.5714 18.4913 33.44 27.4133 35.8829 32.2506Z" fill="black"/>
</svg>
